<svg xmlns="http://www.w3.org/2000/svg" viewBox="0 0 252.04 91.03"><defs><style>.cls-1{font-size:81.49px;font-family:YouSheBiaoTiHei, YouSheBiaoTiHei;}.cls-2{fill:none;stroke:#000;}.cls-2,.cls-3,.cls-4{stroke-miterlimit:10;}.cls-3{fill:#f1d500;stroke:#f1d500;stroke-width:1.25px;}.cls-4{stroke:#fff;stroke-width:2px;}</style></defs><title>资源 4</title><g id="图层_2" data-name="图层 2"><g id="图层_1-2" data-name="图层 1"><text class="cls-1" transform="translate(88.43 69.27)">易测</text><path class="cls-2" d="M251.54,28V55.91a26.3,26.3,0,0,1-26.2,26.2H54.72a26.27,26.27,0,0,0,26.2-26.2V28a26.27,26.27,0,0,0-26.2-26.2H225.34A26.3,26.3,0,0,1,251.54,28Z"/><rect class="cls-3" x="0.63" y="1.83" width="80.26" height="80.26" rx="26.29" ry="26.29"/><path class="cls-4" d="M51.06,21.38l-1.63-1.5h19.8L45.29,46.54,42.8,64.8H26.27l2.49-18.26-14-24.44-2.49-2.22H29.62l9.05,16.74Z"/></g></g></svg>